# xmcd
#
# Track frame offsets: 
#        150
#        16410
#        43392
#        45621
#        76642
#        99276
#        101373
#        129294
#        164283
#        212699
#        218604
#        239965
#        267917
#        291546
#
# Disc length: 4380 seconds
#
# Revision: 3
# Processed by: cddbd v1.5.2PL0 Copyright (c) Steve Scherf et al.
# Submitted via: ExactAudioCopyFreeDBPlugin 1.0
#
DISCID=c2111a0e
DTITLE=Stacy Mitchart and Blues-U-Can-Use - "Live" at Burbon Street Bl
DTITLE=ues and Boggie Bar, Disk 2
DYEAR=1997
DGENRE=Blues
TTITLE0=Loan Me A Helping Hand
TTITLE1=If I Could Change My Mind
TTITLE2=Intro
TTITLE3=Mastercard Woman
TTITLE4=Root Dr.
TTITLE5=Intro
TTITLE6=New Orleans Ladies
TTITLE7=Red House
TTITLE8=Turning Point
TTITLE9=Intro
TTITLE10=Reefer Bag
TTITLE11=Last Two dollars
TTITLE12=Real Woman Blues
TTITLE13=GuessWho
EXTD=
EXTT0=
EXTT1=
EXTT2=
EXTT3=
EXTT4=
EXTT5=
EXTT6=
EXTT7=
EXTT8=
EXTT9=
EXTT10=
EXTT11=
EXTT12=
EXTT13=
PLAYORDER=
